<?xml version="1.0"?>
<svg width="16" height="16" xmlns="http://www.w3.org/2000/svg" xmlns:svg="http://www.w3.org/2000/svg">

 <metadata id="metadata5">image/svg+xmlimage/svg+xml</metadata>
 <g class="layer">
  <title>Layer 1</title>
  <g id="g3727" opacity="0.26" transform="matrix(0.264583,0,0,0.264583,20.990103,-155.90081)">
   <path d="m2.9875,-62.11977a1.0001,1.0001 0 0 0 1.7168,0.6972l2.293,-2.2929l0,4.5859a1.0001,1.0001 0 1 0 2,0l0,-4.5859l2.293,2.2929a1.0001,1.0001 0 1 0 1.4141,-1.414l-3.9141,-3.91411a1.0001,1.0001 0 0 0 -1.5859,0a1.0001,1.0001 0 0 0 -0.00391,0.01001l-3.9102,3.9102a1.0001,1.0001 0 0 0 -0.30273,0.7168l-0.00006,-0.0061z" fill="#7f00ff" fill-opacity="0.99608" id="path3725"/>
  </g>
  <g fill="#8308ff" id="g4761" transform="matrix(0.237616, -0.237616, 0.237616, 0.237616, -237.775, 688.128)">
   <path d="m1933.40081,-929.34965c0.0009,2.6922 3.2727,4.02093 5.1502,2.09151l6.8792,-6.87854l-0.0002,47.23967c-0.057,4.05696 6.0575,4.05701 6.0002,0.00006l0,-47.23977l6.879,6.87875c2.827,2.94742 7.1895,-1.41452 4.2421,-4.24208l-11.7423,-11.74236c-1.2012,-1.5627 -3.5568,-1.56268 -4.7575,0.00012c0,0 -0.0001,0.0298 -0.0001,0.0298l-11.7306,11.73056c-0.5808,0.5649 -0.9082,1.34046 -0.9082,2.15046l-0.0118,-0.01818z" fill="#d4aaff" id="path4759" stroke-width="3"/>
  </g>
 </g>
</svg>