<?xml version="1.0"?>
<svg width="16" height="16" xmlns="http://www.w3.org/2000/svg" xmlns:svg="http://www.w3.org/2000/svg">

 <g class="layer">
  <title>Layer 1</title>
  <g id="svg_1" transform="translate(0 -1036.4)">
   <path d="m1,1037.400024l0,2l1,0l0,-1l1,0l0,-1l-2,0zm12,0l0,1l1,0l0,1l1,0l0,-2l-2,0zm-5.0371,0.00195c-0.14254,0.00487 -0.28238,0.04016 -0.41016,0.10352l-6,3c-0.33878,0.16944 -0.55276,0.51574 -0.55273,0.89453l0,6c-0.000026,0.37879 0.21395,0.72509 0.55273,0.89453l6,3c0.28156,0.14078 0.61297,0.14078 0.89453,0l6,-3c0.33878,-0.16944 0.55276,-0.51574 0.55273,-0.89453l0,-6c0.000026,-0.37879 -0.21395,-0.72509 -0.55273,-0.89453l-6,-3c-0.15022,-0.074574 -0.31679,-0.11017 -0.48438,-0.10352l0.00001,0zm1.0371,2.6172l4,2l0,3.7637l-4,-2l0,-3.7637zm-1,5.5l3.7637,1.8809l-3.7637,1.8828l-3.7637,-1.8828l3.7637,-1.8809zm-7,3.8809l0,2l2,0l0,-1l-1,0l0,-1l-1,0zm13,0l0,1l-1,0l0,1l2,0l0,-2l-1,0z" fill="#d4aaff" fill-rule="evenodd" id="svg_2"/>
  </g>
 </g>
</svg>